<svg xmlns="http://www.w3.org/2000/svg" xmlns:xlink="http://www.w3.org/1999/xlink" xmlns:inkscape="http://www.inkscape.org/namespaces/inkscape" version="1.1" width="530.401" height="608.573" viewBox="0 0 530.401 608.573">
<defs>
<clipPath id="clip_0">
<path transform="matrix(1,0,0,-1,0,608.573)" d="M0 608.573H530.401V0H0Z"/>
</clipPath>
</defs>
<g inkscape:groupmode="layer" inkscape:label="Layer 1">
<g clip-path="url(#clip_0)">
<path transform="matrix(1,0,0,-1,80.8896,372.13209)" d="M0 0C.841-1.77-.338-4.905 2.67-5.426 4.443-5.732 4.51-3.697 4.516-2.346 4.524-.196 4.174 2.062 1.726 2.621 .111 2.99-.076 1.452 0 0M-5.082 8.435C-7.99 8.559-12.95 4.007-12.978 2.009-12.995 .746-12.224-.41-11.159 .197-8.376 1.781-4.74 2.627-4.017 6.501-3.794 7.694-4.679 8.412-5.082 8.435M124.939 146.245C119.906 148.426 115.743 149.934 113.578 154.113 111.793 157.561 109.863 156.727 108.249 154.031 107.181 152.247 106.336 150.292 105.664 148.321 105.093 146.648 105.609 144.623 107.501 144.681 112.916 144.847 118.51 143.766 124.939 146.245M-13.552-14.617-13.47-14.616C-13.47-16.191-13.558-17.771-13.454-19.338-13.108-24.548-11.364-25.793-6.418-24.456-3.274-23.606 1.179-17.188 1.189-13.276 1.2-9.068-2.745-10.117-4.946-8.887-5.991-8.303-7.326-8.258-8.418-7.734-12.503-5.776-13.892-7.366-13.565-11.468-13.482-12.511-13.552-13.567-13.552-14.617M373.054 195.512C373.325 193.578 371.859 191.519 374.102 190.523 375.261 190.009 376.004 191.211 376.375 192.172 379.461 200.175 382.774 208.11 384.848 216.457 385.529 219.197 384.594 221.254 381.308 221.64 378.443 221.976 376.573 221.377 376.157 218.081 375.194 210.44 374.069 202.819 373.054 195.512M-42.59-112.942C-41.194-112.746-40.97-111.716-40.698-110.678-37.262-97.598-33.474-84.597-30.509-71.41-28.957-64.505-25.39-57.901-27.018-50.333-28.665-42.677-26.211-36.142-20.443-30.844-18.861-29.39-17.414-27.855-18.413-25.37-22.018-16.408-20.18-7.4-18.565 1.595-17.9 5.299-16.028 7.972-12.376 9.454-8.033 11.216-5.46 14.547-4.361 19.184-3.554 22.592-2.375 25.92-1.235 29.239-.393 31.693 1.733 32.164 3.921 31.795 6.042 31.437 6.606 29.607 6.451 27.744 6.089 23.371 5.734 18.984 5.051 14.654 4.407 10.57 4.925 6.968 7.894 3.92 10.302 1.448 10.047-1.396 9.214-4.443 7.478-10.786 4.711-16.704 1.093-22.091-2.378-27.259-2.907-32.246-.663-37.966 1.055-42.346 1.395-47.067-1.466-51.124-4.529-55.468-5.47-60.359-6.45-65.37-8.101-73.814-10.176-82.179-11.703-90.645-15.224-110.165-21.394-129.156-23.222-149.013-24.03-157.796-21.497-161.087-12.707-161.427-7.284-161.636-1.836-161.092 3.601-161.096 40.461-161.121 77.321-161.142 114.181-161.278 157.7-161.439 201.218-161.767 244.737-161.924 286.338-162.074 327.943-162.433 369.538-162.001 384.415-161.846 398.679-153.76 402.039-136.642 403.684-128.261 403.965-119.919 403.981-111.486 404.214 9.293 403.191 130.076 404.906 250.852 404.919 251.729 404.957 252.622 404.814 253.479 404.618 254.664 404.506 256.118 403 256.337 401.471 256.559 400.945 255.237 400.509 254.081 400.076 252.932 399.763 251.738 399.4 250.563 394.831 235.801 390.937 220.783 385.487 206.355 380.889 194.183 376.359 182.312 375.282 169.103 374.339 157.521 368.973 147.268 361.713 138.15 360.963 137.208 360.278 135.887 358.842 136.218 357.266 136.581 357.508 138.04 357.55 139.256 357.896 149.107 357.353 158.938 356.953 168.775 356.746 173.852 357.579 179.12 362.071 181.961 367.591 185.453 368.874 190.447 369.393 196.202 369.756 200.228 370.145 204.262 370.782 208.25 374.077 228.89 377.593 249.492 381.943 269.94 383.391 276.744 382.484 277.98 375.4 278.151 371.892 278.235 368.38 278.118 364.869 278.099 345.564 277.998 326.259 277.871 306.954 277.825 303.034 277.815 301.628 276.26 302.317 272.278 304.784 258.015 308.326 244.161 315.177 231.234 319.033 223.959 322.236 216.317 325.371 208.691 326.585 205.738 328.105 202.086 324.668 199.472 321.141 196.789 317.141 194.284 312.561 196.411 309.802 197.692 308.038 197.008 305.881 195.484 294.844 187.686 283.625 180.141 272.685 172.211 252.469 157.556 229.605 147.095 209.638 132.06 207.578 130.509 205.012 130.568 202.572 130.31 201.206 130.167 199.255 130.567 198.748 129.146 197.455 125.522 194.331 125.141 191.392 124.006 187.285 122.42 187.874 118.354 188.488 115.377 189.238 111.746 191.824 115.062 193.588 114.99 194.279 114.962 194.99 115.227 195.67 115.154 197.051 115.006 198.744 114.945 198.876 113.122 198.985 111.598 197.512 111.297 196.337 110.949 194.491 110.403 192.519 110.121 190.818 109.283 187.926 107.858 186.832 105.421 187.995 102.252 189.277 98.762 191.793 99.428 194.505 100.233 198.102 101.302 200.988 103.316 202.185 106.844 203.965 112.085 205.131 117.445 211.838 118.832 213.601 119.197 214.886 122.454 217.152 120.871 219.634 119.137 218.468 116.561 217.615 114.171 217.159 112.894 215.225 111.211 217.305 110.109 218.887 109.27 220.091 111.055 221.199 112.156 224.432 115.367 227.626 118.619 230.92 121.766 231.948 122.748 233.371 123.565 234.623 122.208 235.655 121.091 234.841 119.829 234.079 118.888 232.979 117.53 231.614 116.387 230.52 115.026 229.538 113.804 228.369 112.268 229.993 110.88 231.364 109.707 232.505 111.08 233.666 111.859 237.876 114.685 238.353 119.483 240.034 123.657 240.956 125.947 242.399 127.926 245.171 126.726 247.877 125.554 248.452 123.252 247.106 120.581 246.79 119.955 246.37 119.383 246.039 118.763 245.549 117.845 244.806 116.769 245.878 115.935 247.178 114.924 248.173 116.097 249.043 116.885 251.401 119.021 251.401 121.883 251.13 124.715 250.667 129.58 251.788 134.211 253.616 138.569 254.522 140.73 255.472 144.448 258.842 143.355 261.724 142.42 260.745 139.058 260.367 136.795 259.5 131.606 258.248 126.478 257.047 121.35 256.703 119.881 256.494 118.531 257.767 117.494 259.3 116.245 260.84 116.977 262.111 117.929 264.819 119.957 266.063 122.646 265.771 126.158 265.264 132.268 267.3 137.945 269.218 143.601 269.747 145.163 270.867 146.512 272.707 146.233 274.591 145.947 275.114 144.317 275.1 142.637 275.085 140.887 274.854 139.139 274.745 137.388 274.479 133.103 272.488 129.29 271.467 125.214 270.98 123.27 270.802 121.126 273.076 120.23 275.2 119.393 276.675 120.793 277.914 122.44 279.359 124.362 279.49 126.678 280.05 128.877 280.832 131.952 282.538 134.31 285.649 135.347 286.768 135.72 287.776 135.219 288.276 134.147 289.577 131.357 288.098 129.039 286.836 126.737 286.174 125.528 284.831 124.266 286.531 123.13 288.193 122.02 289.641 123.144 290.498 124.548 292.046 127.083 293.306 129.793 294.804 132.361 296.58 135.408 298.388 138.613 302.199 134.336 303.18 133.236 304.379 133.55 305.555 134.208 307.151 135.1 308.695 134.797 309.858 133.491 312.128 130.945 314.063 131.808 316.096 133.79 318.732 136.362 321.399 138.908 324.15 141.355 325.367 142.438 326.912 143.238 328.312 141.638 329.538 140.237 328.601 139.006 327.589 137.959 326.25 136.575 324.833 135.267 323.47 133.906 322.557 132.994 321.745 131.926 322.795 130.709 323.831 129.51 325.178 129.927 326 130.924 327.742 133.04 330.285 134.521 330.813 137.643 331.096 139.312 332.156 140.859 332.926 142.431 334.106 144.838 335.969 146.832 338.7 145.708 341.764 144.447 340.67 141.723 339.822 139.354 339.387 138.137 338.016 137.054 339.165 135.543 340.99 135.419 342.025 136.76 343.284 137.652 344.139 138.258 345.048 139.131 346.067 138.297 347.146 137.413 346.393 136.348 345.826 135.496 343.037 131.308 339.625 128.188 334.083 129.46 332.455 129.833 330.723 130.248 329.647 128.909 323.915 121.77 316.468 125.75 310.125 126.637 306.352 127.165 304.688 127.306 302.651 124.142 301.323 122.081 299.479 118.607 296.332 122.726 295.056 124.395 293.998 123.455 292.964 122.246 287.056 115.344 278.079 118.699 270.993 115.707 270.87 115.655 270.646 115.77 270.501 115.86 267.547 117.683 265.316 116.433 262.964 114.437 260.554 112.391 257.729 111.513 254.763 113.602 252.824 114.968 251.312 114.099 249.512 113.018 243.237 109.25 235.278 110.096 229.135 105.744 228.514 105.303 226.927 105.607 226.155 106.12 223.711 107.742 221.808 107.237 219.469 105.661 215.691 103.114 210.606 102.125 206.92 103.382 204.215 104.305 203.159 104.29 202.228 102.389 199.849 97.537 195.325 95.688 190.995 93.353 187.709 91.581 185.987 92.681 185.132 95.84 183.522 101.785 182.291 107.792 182.453 114.022 182.659 121.978 186.739 127.621 194.337 129.839 196.245 130.396 197.148 131.249 197.77 133.2 199.941 140.015 204.314 145.111 210.628 148.526 218.354 152.705 225.836 157.289 233.022 162.344 234.108 163.108 235.814 163.867 235.184 165.54 234.541 167.247 232.784 166.525 231.454 166.453 224.932 166.098 218.456 166.729 212.074 167.861 207.497 168.674 202.897 170.64 201.475 175.455 199.855 180.94 200.932 186.295 205.603 190.332 206.948 191.493 208.337 192.672 208.446 194.59 208.765 200.157 208.463 205.766 203.858 209.607 199.411 213.317 194.026 213.164 188.866 211.145 181.381 208.215 177.515 196.297 183.111 192.04 187.518 188.688 188.879 184.938 189.217 180.058 189.495 176.049 191.233 172.726 195.184 171.549 200.865 169.857 200.276 166.363 198.658 162.125 194.701 151.756 189.399 142.035 184.518 132.106 181.461 125.888 177.414 120.438 172.678 115.483 169.787 112.458 162.206 111.202 160 113.573 156.54 117.293 160.835 119.801 162.029 122.772 162.287 123.413 162.751 123.974 163.137 124.561 167.911 131.816 171.299 139.665 173.456 148.085 174.393 151.742 173.099 153.156 169.529 152.572 165.725 151.949 161.952 151.14 158.157 150.455 153.376 149.593 148.587 148.774 143.801 147.936 143.858 147.462 143.915 146.989 143.971 146.516 147.247 146.349 150.523 146.055 153.799 146.055 156.713 146.056 158.052 145.02 157.581 141.945 156.52 135.023 153.703 128.757 149.807 123.114 146.742 118.672 141.776 120.593 137.586 121.06 134.042 121.456 134.372 124.668 134.281 127.295 134.12 131.976 130.728 132.256 127.549 131.644 122.054 130.585 116.673 128.932 111.243 127.531 103.583 125.555 97.576 127.867 92.734 134.15 87.242 141.278 87.769 148.494 91.911 155.795 101.008 171.828 110.239 187.784 119.425 203.765 121.032 206.561 123.16 208.866 126.031 210.397 130.418 212.735 134.912 213.981 139.406 210.793 144.16 207.42 142.351 202.822 140.91 198.806 137.051 188.044 134.157 177.002 130.79 166.099 129.66 162.439 130.421 161.405 134.371 161.759 145.997 162.799 157.165 165.252 167.769 170.331 172.644 172.666 174.273 175.805 171.993 180.739 171.186 182.486 170.043 184.073 169.161 185.789 163.033 197.722 165.638 209.395 176.484 218.739 187.284 228.044 200.339 229.266 210.794 221.617 222.969 212.71 226.243 200.511 223.208 186.167 222.778 184.138 221.887 181.932 223.714 180.198 225.727 178.289 227.963 179.351 230.13 180.123 239.233 183.369 248.15 187.053 256.527 191.903 269.424 199.368 282.83 206.037 294.337 215.706 296.043 217.138 298.631 218.497 298.342 220.964 297.288 229.973 294.873 238.85 296.187 248.065 296.263 248.601 295.273 249.643 294.596 249.852 293.538 250.18 293.249 249.088 292.963 248.255 292.376 246.539 293.126 243.695 290.643 243.51 288.302 243.335 287.8 246.292 286.346 247.728 277.744 256.22 266.866 262.451 255.46 255.629 252.323 253.752 248.801 252.624 245.202 251.639 220.754 244.95 195.652 244.333 170.59 243.411 167.514 243.298 162.368 241.576 161.768 244.569 161.237 247.218 166.294 249.181 169.569 250.455 171.224 251.099 173.31 251.508 172.682 253.852 172.103 256.019 169.997 255.79 168.255 255.636 162.666 255.143 157.093 254.456 151.498 254.066 143.801 253.529 136.103 252.689 128.372 253.257 126.912 253.365 124.828 253.041 124.414 255.033 124.067 256.705 125.915 257.112 127.003 257.937 128.712 259.233 132.462 259.467 131.678 262.044 130.753 265.091 127.429 262.894 125.164 263.044 124.308 263.1 123.432 262.795 122.559 262.703 106.867 261.061 91.249 258.227 75.372 259.467 72.888 259.661 68.905 258.743 68.349 261.361 67.788 264.001 71.913 263.794 73.927 264.915 75.002 265.513 76.464 265.848 76.066 267.408 75.669 268.969 74.194 268.668 72.983 268.561 58.335 267.272 43.925 269.333 29.542 271.69 26.966 272.112 24.117 272.327 22.427 274.62 20.857 276.749 18.85 276.996 16.493 277.253 4.21 278.594-8.06 277.282-20.309 276.949-34.522 276.562-43.512 266.299-43.442 252.122-43.35 233.491-43.3 214.86-43.315 196.228-43.401 94.965-43.517-6.298-43.575-107.56-43.576-109.362-44.332-111.443-42.59-112.942M188.511 325.798C190.79 328.966 192.918 328.74 194.742 328.827 216.239 329.86 237.56 328.96 258.275 322.344 270.848 318.329 281.493 311.555 288.621 300.102 291.843 294.926 295.822 292.564 302.371 292.664 326.061 293.029 349.767 292.9 373.459 292.486 389.001 292.215 402.754 287.284 412.615 274.353 418.369 266.808 419.406 257.877 419.426 248.867 419.552 192.78 419.529 136.693 419.546 80.606 419.561 29.089 419.648-22.427 419.528-73.943 419.484-93.104 418.963-112.264 418.616-131.424 418.511-137.249 417.617-142.95 415.833-148.527 410.07-166.541 396.638-174.126 378.91-175.584 352.96-177.718 326.984-175.812 301.02-175.767 221.677-175.628 142.335-175.444 62.992-175.236 34.738-175.162 6.476-174.527-21.767-175.014-36.027-175.26-54.861-158.595-56.769-144.202-58.143-133.834-57.981-123.528-58.07-113.167-58.985-6.268-58.626 100.633-58.757 207.533-58.775 221.95-58.961 236.371-58.699 250.783-58.542 259.476-56.531 267.868-51.658 275.244-43.275 287.933-30.287 292.278-16.226 292.542 15.185 293.133 46.615 292.676 78.035 292.886 90.462 292.969 102.786 295.785 115.3 294.517 116.721 294.373 118.872 294.453 119.007 296.539 119.137 298.552 117.133 298.928 115.63 299.169 111.651 299.809 107.65 300.346 103.639 300.744 100.151 301.091 96.629 301.105 93.138 301.437 91.308 301.611 88.503 301.275 88.229 303.431 87.903 305.986 90.95 305.675 92.58 306.118 118.486 313.15 144.505 313.73 170.616 307.217 172.826 306.666 175.073 306.26 177.308 305.815 178.323 305.612 179.557 305.231 180.128 306.384 180.838 307.818 179.675 308.68 178.637 309.332 173.903 312.307 168.399 312.931 163.119 314.002 156.421 315.362 149.59 316.06 142.823 317.083 141.372 317.302 139.081 316.846 139.159 319.02 139.229 320.966 141.51 320.801 142.951 320.971 159.769 322.952 176.582 322.795 193.335 320.35 200.795 319.261 208.19 317.728 215.614 316.395 216.132 316.302 216.649 316.109 217.164 316.117 218.995 316.145 221.505 315.228 222.099 317.723 222.61 319.871 220.183 320.459 218.678 321.074 214.744 322.68 210.528 323.046 206.331 323.505 200.682 324.124 195.056 324.945 188.511 325.798"/>
<path transform="matrix(1,0,0,-1,258.0995,484.54573)" d="M0 0C2.722-.255 4.221 1.628 4.195 4.346 4.171 6.953 2.168 8.32-.356 8.403-3.215 8.498-5.024 6.927-5.183 4.076-5.361 .865-3.186-.02 0 0M-104.875 52.278C-104.465 52.878-103.928 53.779-103.282 54.592-93.884 66.408-84.334 78.112-76.097 90.799-64.914 108.022-54.182 125.564-41.019 141.401-38.304 144.668-38.43 147.276-41.659 149.91-43.29 151.24-44.796 152.727-46.441 154.038-50.872 157.567-51.972 157.282-54.685 152.161-69.887 123.456-85.086 94.75-100.326 66.065-102.219 62.501-104.398 59.09-106.332 55.547-106.902 54.503-107.357 53.179-104.875 52.278M114.619 3.164C91.392 .676 67.963 2.472 44.825 .478 32.001-.627 18.574-.498 6.087-5.442 1.453-7.276-3.608-7.083-8.177-4.428-11.256-2.639-14.618-2.821-17.926-2.975-23.627-3.242-29.114-2.344-34.468-.474-37.143 .46-39.871 1.076-42.711 1.023-59.922 .707-77.095 1.869-94.281 2.441-99.439 2.613-102.443 1.42-103.546-4.188-104.679-9.949-107.414-11.306-113.082-10.409-126.464-8.292-135.355 .817-144.294 9.791-146.392 11.897-144.839 14.21-143.649 16.058-134.112 30.868-127.245 47.088-119.012 62.584-106.818 85.532-94.688 108.515-82.42 131.423-77.535 140.546-72.915 149.816-66.906 158.318-63.041 163.785-62.379 170.092-64.29 176.474-65.205 179.532-66.316 182.243-62.383 183.932-58.346 185.666-54.305 187.124-51.017 182.739-49.77 181.077-48.62 179.178-48.042 177.206-44.91 166.514-35.674 162.524-27.105 157.81-25.328 156.832-23.318 157.481-21.411 157.757-9.897 159.425 1.072 163.197 12.128 166.597 15.861 167.746 19.638 168.376 23.476 168.724 29.334 169.254 31.673 167.289 31.665 161.291 31.658 155.857 30.876 150.467 29.613 145.137 28.4 140.02 27.553 134.813 26.641 129.63 26.441 128.489 26.055 126.911 27.553 126.401 29.347 125.789 30.015 127.425 30.516 128.668 35.693 141.511 42.483 153.732 45.192 167.527 47.415 178.845 40.822 186.976 29.205 186.695 20.727 186.49 12.905 182.549 4.434 182.076-1.166 181.762-6.746 181.096-12.342 180.705-15.564 180.48-18.693 181.156-21.406 182.926-24.311 184.821-25.592 187.613-24.786 191.111-23.978 194.619-21.238 194.977-18.264 195.1-11.092 195.397-3.833 194.938 3.143 197.163 5.303 197.852 7.62 198.467 9.428 199.739 12.027 201.567 13.96 202.477 16.626 199.677 18.555 197.652 21.618 198.448 24.203 198.445 29.986 198.437 35.75 199.229 41.556 198.73 45.67 198.376 48.922 196.613 51.421 193.407 58.464 184.372 62.019 174.903 58.081 163.079 50.483 140.265 42.865 117.472 33.772 95.208 32.268 91.526 32.074 88.273 33.562 84.581 38.384 72.622 37.07 67.143 27.624 58.168 24.983 55.66 21.677 56.614 18.902 60.234 8.104 74.326 4.652 89.612 8.916 107.204 11.966 119.786 13.596 132.784 13.973 145.821 14.14 151.616 13.351 152.221 7.997 150.625 1.744 148.76-4.698 147.951-11.097 146.922-16.764 146.01-21.036 143.427-24.516 138.665-43.377 112.86-62.234 87.046-81.57 61.599-90.282 50.134-98.819 38.543-107.491 27.051-109.724 24.092-111.756 21.01-112.862 17.447-114.486 12.213-111.533 8.147-106.167 7.412-97.537 6.23-89.14 8.961-80.514 8.492-71.947 8.025-63.32 8.514-54.724 8.733-46.871 8.934-39.039 8.621-31.377 11.571-27.781 12.956-23.409 12.474-19.384 12.545-14.49 12.632-9.876 12.741-5.308 15.452-.624 18.232 4.712 16.964 9.288 14.355 12.215 12.686 14.979 12.241 18.269 12.506 23.691 12.943 29.276 13.017 34.454 11.267 44.019 8.035 53.838 8.639 63.629 8.51 72.053 8.399 80.66 9.476 88.862 8.094 102.119 5.859 115.294 6.23 128.556 6.511 129.947 6.54 132.388 6.89 132.252 4.731 132.129 2.775 129.821 3.199 128.308 3.183 123.746 3.132 119.182 3.164 114.619 3.164"/>
<path transform="matrix(1,0,0,-1,465.2995,351.1159)" d="M0 0C.116-7.67-1.757-10.734-8.592-13.152-14.525-15.251-20.634-16.85-26.649-18.721-28.637-19.339-31.244-19.84-31.421-22.208-31.599-24.575-28.905-24.775-27.192-25.452-24.679-26.446-21.754-27.473-22.048-30.58-22.32-33.461-25.337-33.778-27.771-34.265-32.696-35.249-36.902-37.887-40.953-40.597-47.173-44.757-53.977-46.546-61.307-46.706-70.086-46.898-78.733-47.835-87.346-49.737-92.946-50.974-98.449-49.103-103.689-46.943-106.252-45.886-105.92-44.637-103.833-43.331-101.139-41.645-98.288-40.367-95.195-39.57-93.002-39.005-90.732-38.462-88.745-37.43-84.188-35.063-83.628-31.832-87.375-28.281-93.222-22.738-99.204-17.278-106.129-13.087-114.529-8.003-121.371-1.368-126.824 6.745-127.699 8.047-128.433 9.477-129.016 10.935-129.908 13.167-131.595 15.783-129.537 17.799-127.46 19.833-124.388 18.96-122.103 17.81-117.886 15.689-113.737 13.32-109.898 10.579-102.941 5.611-95.219 2.226-87.156-.083-77.233-2.924-69.102-8.547-61.496-15.054-57.875-18.151-54.946-17.425-50.615-16.536-35.842-13.501-26.421-.375-12.007 3.029-10.412 3.406-9.107 4.933-7.609 5.828-2.651 8.792-.658 7.802-.16 2.176-.083 1.302-.031 .426 0 0"/>
<path transform="matrix(1,0,0,-1,127.9247,196.2214)" d="M0 0C-.297-2.248 .083-5.588 .72-8.858 1.623-13.492 3.211-17.892 8.601-18.927 12.632-19.701 18.682-16.261 20.304-11.468 23.251-2.76 25.028 6.279 21.618 15.334 19.965 19.722 17.221 23.312 12.247 24.551 3.119 26.823-3.322 20.479-.843 11.556 .11 8.124 .401 4.65 0 0M-70.939 5.296C-68.651-2.862-64.938-10.265-60.545-17.373-54.444-27.245-46.456-33.857-34.163-33.661-25.885-33.529-20.987-29.118-20.381-20.93-19.785-12.875-22.569-5.654-26.509 1.067-29.346 5.907-31.332 5.7-35.8 1.021-37.503-.763-39.178-2.969-41.97-2.219-44.731-1.477-45.075 1.331-45.804 3.636-46.865 6.989-44.466 8.057-42.051 8.808-37.343 10.273-34.259 13.33-32.451 17.845-29.7 24.72-33.151 30.254-40.519 30.687-44.419 30.916-48.183 29.973-51.99 29.332-55.868 28.68-58.99 31.352-59.359 35.529-59.741 39.854-56.419 39.646-53.688 39.906-35.1 41.673-25.673 30.766-27.465 14.1-27.595 12.881-28.023 11.508-26.864 10.675-25.418 9.635-24.217 10.723-23.112 11.58-19 14.766-14.347 16.81-9.252 17.572-6.128 18.039-5.257 20.301-4.577 22.599-2.4 29.965 2.482 33.662 10.039 33.971 17.818 34.288 22.912 30.056 25.263 23.273 30.395 8.471 30.842-6.275 22.425-20.325 21.494-21.879 20.262-23.034 18.806-24.065 14.135-27.372 8.843-29.548 3.498-27.194-2.316-24.634-4.232-18.943-4.592-12.788-4.858-8.241-3.985-3.663-5.171 .869-5.792 3.239-6.534 5.395-9.34 5.541-13.079 5.736-16.999 5.479-19.642 2.605-21.666 .404-19.818-2.074-18.378-4.062-14.491-9.426-12.016-15.088-11.654-21.966-10.882-36.656-23.358-44.742-36.489-42.038-53.596-38.516-63.084-26.771-68.913-11.313-70.881-6.093-72.991-.799-70.939 5.296"/>
<path transform="matrix(1,0,0,-1,100.063,285.9876)" d="M0 0C4.18 .58 8.909-.287 11.059 5.08 11.731 6.757 13.638 6.43 14.295 4.837 15.197 2.651 16.468 .377 14.948-2.169 13.239-5.03 14.132-8.359 13.549-11.437 13.351-12.483 13.684-13.65 14.904-13.967 15.896-14.225 16.425-13.394 16.895-12.621 17.982-10.832 19.258-9.139 20.174-7.268 22.903-1.691 27.298-.731 30.866-5.635 33.651-9.464 35.115-8.786 37.108-5.359 38.876-2.319 41.203-1.168 43.565-4.587 46.302-8.55 47.913-6.773 49.519-3.797 49.934-3.028 50.307-2.221 50.578-1.391 51.117 .26 51.307 2.463 53.431 2.559 55.871 2.669 56.228 .348 56.843-1.476 57.048-2.082 57.405-2.635 57.743-3.315 59.856-2.197 59.577-.222 60.027 1.352 60.54 3.143 60.115 5.612 62.531 6.077 65.086 6.569 63.683 3.079 65.776 2.424 68.146 4.888 68.51 10.57 73.544 9.264 78.4 8.005 74.319 3.415 75.662 .724 77.2 .189 77.947 1.617 79.089 1.846 79.707 1.97 80.54 1.943 81.021 1.613 81.897 1.011 81.661-.003 81.173-.744 78.687-4.514 75.891-8.151 70.698-7.137 66.043-6.229 62.501-7.238 59.687-11.182 58.125-13.373 55.968-14.131 54.209-11.324 52.274-8.236 50.373-9.093 48.204-10.942 46.684-12.238 44.666-13.465 42.931-12.259 38.728-9.337 36.696-11.94 34.338-14.833 33.062-16.398 31.501-18.49 29.159-17.802 26.791-17.106 27.724-14.547 27.337-12.766 27.043-11.407 27.061-9.758 25.387-9.368 23.491-8.927 22.549-10.442 21.732-11.789 20.187-14.335 19.038-17.181 17.188-19.467 14.917-22.274 12.178-24.364 9.428-19.602 7.678-16.573 6.082-17.311 4.55-20.019 2.643-23.389 .414-26.547-2.902-28.74-4.61-29.87-6.735-30.768-8.117-29.02-9.582-27.168-7.385-25.865-6.181-24.779-.354-19.521-.307-19.5-6.887-14.39-10.08-11.911-13.77-9.783-12.725-4.756-11.598 .669-7.778 3.957-3.457 6.797-2.389 7.498-1.08 7.609 .024 6.803 1.215 5.934 .988 4.743 .638 3.469 .32 2.309 .297 1.068 .146-.139-3.158-1.336-7.944-1.592-6.171-6.95-5.126-10.104-2.031-12.085 .952-13.662 2.306-14.378 4.023-14.289 4.676-12.875 5.745-10.558 8.003-8.6 7.475-5.724 7.13-3.848 5.43-4.005 4.078-4.139 .922-4.451 .166-2.556 0 0"/>
<path transform="matrix(1,0,0,-1,220.9478,268.7813)" d="M0 0C3.381-.122 5.366-.799 6.82-2.96 8.641-5.668 9.959-4.821 11.223-2.206 14.468 4.513 17.14 4.841 22.194-.697 23.016-1.598 23.575-2.827 24.937-2.963 26.334-3.103 28.679-2.09 27.941-4.9 27.158-7.88 25.29-10.298 22.057-11.047 19.753-11.581 18.919-10.031 18.654-8.083 18.44-6.51 18.48-4.638 16.584-4.236 14.584-3.811 13.482-5.444 12.403-6.863 9.089-11.22 4.028-12.963-.55-15.386-3.687-17.045-6.407-14.434-8.648-13.249-10.712-12.157-7.931-9.707-7.017-7.969-5.186-4.487-4.096-.208 0 0"/>
<path transform="matrix(1,0,0,-1,110.1362,158.91352)" d="M0 0C-6.648 .028-13.717 4.36-19.367 11.434-20.279 12.576-21.16 13.862-19.841 15.14-18.284 16.65-17.036 15.44-15.775 14.383-6.493 6.602-.919 6.525 9.324 14.049 13.555 17.157 15.824 13.428 18.152 11.238 20.732 8.812 18.595 6.912 16.573 5.259 11.773 1.337 8.355 .021 0 0"/>
<path transform="matrix(1,0,0,-1,305.6057,445.9475)" d="M0 0C0 4.031-.033 8.063 .014 12.094 .036 14.001 .551 15.642 2.955 15.538 5.193 15.441 6.021 13.97 5.925 12.001 5.664 6.687 6.999 4.706 12.895 6.862 18.019 8.735 21.896 5.458 22.239 .024 22.471-3.638 22.265-7.333 22.149-11.01 22.094-12.765 21.972-14.859 19.597-14.886 16.868-14.918 16.931-12.648 16.833-10.704 16.693-7.905 16.691-5.093 16.415-2.309 16.07 1.183 14.648 3.827 10.527 3.574 6.705 3.339 6.353 .424 6.116-2.448 5.871-5.416 5.743-8.394 5.593-11.368 5.479-13.618 4.556-15.152 2.091-14.943-.305-14.739-.339-12.868-.329-11.035-.31-7.357-.324-3.678-.324 0-.216 0-.108 0 0 0"/>
<path transform="matrix(1,0,0,-1,209.6562,454.1704)" d="M0 0C1.09 6.996-3.925 11.114-6.814 16.183-8.064 18.378-12.219 20.699-9.394 23.034-5.902 25.921-4.109 21.721-2.437 19.156 2.931 10.923 3.442 10.927 8.725 19.284 9.556 20.599 10.257 22.149 11.431 23.052 12.808 24.111 14.841 24.629 16.334 23.376 18.134 21.864 16.192 20.619 15.507 19.354 15.008 18.431 14.527 17.468 13.861 16.672 9.2 11.099 4.985 5.427 6.199-2.565 6.482-4.421 5.913-6.654 3.279-6.718 .376-6.788-.005-4.674 0-2.391 .001-1.515 0-.639 0 0"/>
<path transform="matrix(1,0,0,-1,240.2897,457.41609)" d="M0 0C3.975-.124 6.637 2.648 6.731 7.009 6.824 11.39 4.25 14.647 .622 14.739-3.065 14.832-9.181 10.222-9.184 7.347-9.187 4.342-3.913 .122 0 0M-.223-4.002C-6.841-4.041-12.088 .656-12.18 6.702-12.288 13.812-6.721 19.23 .602 19.143 7.849 19.056 12.781 14.032 12.747 6.77 12.718 .372 7.506-3.956-.223-4.002"/>
<path transform="matrix(1,0,0,-1,231.7527,513.8896)" d="M0 0C-.743-.194-1.616-.211-2.454-.199-3.433-.186-4.384-.029-5.363-.02-8.134 .006-8.143 .586-8.143 .586-8.004 1.158-7.009 1.582-5.99 1.852-5.591 1.957-5.172 2.05-4.727 2.087-4.295 2.123-3.852 2.106-3.417 2.081-2.68 2.039-1.948 1.974-1.226 1.889-.221 1.77 .919 1.528 1.136 1.023 1.311 .613 .743 .194 0 0M-2.35 5.458C-3.093 5.069-3.966 5.036-4.804 5.059-5.783 5.086-6.734 5.4-7.713 5.418-10.484 5.47-10.492 6.629-10.492 6.629-10.354 7.774-9.359 8.622-8.34 9.162-7.941 9.373-7.522 9.557-7.077 9.631-6.645 9.704-6.202 9.669-5.767 9.619-5.03 9.535-4.297 9.407-3.575 9.235-2.571 8.997-1.431 8.513-1.214 7.504-1.038 6.685-1.607 5.846-2.35 5.458M-.148 12.377C-3.294 14.386-6.808 14.792-10.134 13.053-13.68 11.198-15.416 8.048-15.092 4.646-15.01-1.262-12.379-4.852-7.328-4.784-3.719-4.736 2.958-6.967 1.084 1.382 1.041 1.57 1.562 1.849 1.753 2.131 4.505 6.191 3.906 9.788-.148 12.377"/>
<path transform="matrix(1,0,0,-1,281.3116,449.4931)" d="M0 0C0-1.75-.009-3.5 .002-5.249 .026-9.272-1.295-11.758-5.943-10.615-7.779-10.164-9.3-11.388-10.989-11.738-17.411-13.068-21.646-9.932-22.037-3.37-22.246 .121-22.183 3.63-22.223 7.131-22.247 9.298-21.689 11.065-19.021 10.828-16.768 10.628-16.198 9.091-16.411 7.086-16.783 3.577-16.453 .103-16.034-3.385-15.646-6.613-13.886-8.029-10.749-7.839-7.721-7.656-5.832-6.246-5.745-2.978-5.661 .171-5.54 3.32-5.44 6.468-5.382 8.293-5.249 10.186-2.858 10.281-.107 10.391 .042 8.329 .056 6.303 .071 4.202 .059 2.101 .059 0Z"/>
<path transform="matrix(1,0,0,-1,249.1061,515.2626)" d="M0 0C1.62 .234 3.253 .643 3.31 2.63 3.35 4.016 2.163 4.221 1.051 3.925-.409 3.537-2.319 3.459-2.358 1.39-2.384 .02-1.064 .021 0 0M1.098 10.04C-.935 11.636-2.645 10.731-4.325 10.542-5.49 10.411-7.015 9.759-7.388 11.431-7.682 12.745-6.424 13.626-5.358 14.205-1.582 16.257 2.364 16.345 6.243 14.632 9.895 13.019 9.43 9.704 9.316 6.504 9.217 3.731 10.834 .71 9.557-1.755 7.898-4.957 4.417-1.922 1.884-2.992 .632-3.521-.831-3.856-2.177-3.796-5.187-3.662-8.45-3.279-9.192 .359-9.938 4.022-7.368 5.569-4.31 6.654-2.421 7.323-.383 7.931 1.098 10.04"/>
<path transform="matrix(1,0,0,-1,203.028,273.6154)" d="M0 0C2.052-.672 5.996 3.121 6.65-1.266 7.117-4.404 2.672-3.37 .429-4.222-3.097-5.562-4.182-8.292-3.763-11.803-3.452-14.412-2.994-17.005-2.716-19.617-2.63-20.423-2.612-21.495-3.766-21.706-4.838-21.901-5.34-21.086-5.592-20.232-8.26-11.207-10.48-2.092-9.059 7.417-8.338 12.244-4.825 14.428-.394 15.411 1.217 15.769 2.894 15.989 3.486 13.922 4.058 11.924 2.691 10.897 1.07 10.514-3.361 9.469-4.1 6.348-3.769 2.485-3.584 .319-2.68-.811 0 0"/>
<path transform="matrix(1,0,0,-1,289.6884,450.8626)" d="M0 0C-.004 2.772 .019 5.39-1.143 8.169-2.588 11.622-.468 14.751 1.903 17.261 2.854 18.269 4.908 18.665 5.298 16.8 5.832 14.247 6.748 12.408 8.994 10.932 10.333 10.052 9.125 8.925 8.262 7.947 4.518 3.702 5.049-2.933 9.376-6.746 10.071-7.358 10.697-7.98 10.508-8.923 10.317-9.877 9.465-10.22 8.6-10.488 4.24-11.84 .443-9.334 .023-4.723-.12-3.161 0-1.575 0 0"/>
<path transform="matrix(1,0,0,-1,192.4918,505.7804)" d="M0 0C0 3.33-.075 6.662 .034 9.989 .084 11.51 .91 12.735 2.613 12.75 4.521 12.767 4.819 11.228 4.852 9.811 4.96 5.253 5.098 .688 4.949-3.866 4.813-8.011 6.658-9.671 10.648-9.243 10.821-9.225 11.009-9.204 11.172-9.249 13.952-10.018 19.031-7.508 19.117-11.084 19.187-14.001 13.785-12.706 10.902-12.873-.231-13.518-.241-13.351 0 0"/>
<path transform="matrix(1,0,0,-1,309.8482,508.4756)" d="M0 0C0-1.756-.006-3.511 .001-5.267 .014-8.25-1.113-10.015-4.433-9.465-4.605-9.436-4.782-9.411-4.956-9.416-19.001-9.817-19.145-9.686-18.704 4.07-18.653 5.674-19.467 8.024-16.623 7.94-14.373 7.873-14.734 5.878-14.605 4.338-14.4 1.893-14.062-.544-13.92-2.993-13.772-5.543-13.035-7.607-10.088-7.656-6.99-7.708-5.159-5.96-4.782-2.93-4.479-.496-4.447 1.973-4.324 4.429-4.244 6.01-4.455 7.888-2.082 7.737 .082 7.6 .103 5.869 .07 4.215 .041 2.811 .064 1.405 .064 0Z"/>
<path transform="matrix(1,0,0,-1,286.0475,499.69349)" d="M0 0C-3.399-1.132-4.175-3.391-4.301-6.405-4.373-8.147-5.839-9.525-7.46-10.377-8.037-10.681-8.851-11.008-9.384-10.824-10.527-10.427-10.025-9.443-9.786-8.631-9.687-8.295-9.544-7.966-9.485-7.623-9.07-5.194-9.654-3.084-11.629-1.518-12.611-.739-13.682-.94-14.408-1.881-15.95-3.88-15.781-6.039-15.036-8.364-14.679-9.481-12.137-10.219-14.055-11.721-15.617-12.944-16.828-11.621-18.148-10.629-20.576-8.804-22.403-6.731-21.494-3.562-20.544-.249-17.823 .595-14.63 1.114-9.684 1.918-5.238-1.641 0 0"/>
<path transform="matrix(1,0,0,-1,280.9518,526.5222)" d="M0 0C1.053 6.134-1.768 6.434-5.125 6.341-7.727 6.27-10.384 6.285-12.931 6.741-15.071 7.123-15.541 9.019-14.711 10.845-14.05 12.3-12.548 13.822-11.017 12.56-8.333 10.349-5.501 11.127-2.572 11.066-.031 11.013 2.969 10.817 3.988 7.777 4.886 5.1 3.176 3.213 0 0"/>
<path transform="matrix(1,0,0,-1,114.0045,137.26831)" d="M0 0C-1.708-2.497-2.745-6.031-5.775-5.649-8.317-5.329-10.865-2.654-10.639 .328-10.445 2.881-8.438 5.698-5.683 5.55-2.841 5.397-1.422 2.454 0 0"/>
<path transform="matrix(1,0,0,-1,143.3191,277.1015)" d="M0 0C-.25-2.125-.977-4.077-3.423-4.581-4.578-4.819-5.672-3.978-5.53-2.833-5.246-.537-4.401 1.68-1.752 2.169-.424 2.413-.064 1.246 0 0"/>
<path transform="matrix(1,0,0,-1,271.6836,528.0413)" d="M0 0C-2.721-.779-4.336 .296-5.954 1.204-7.168 1.886-8.335 2.773-8.09 4.393-8.005 4.957-7.428 5.852-7.015 5.888-5.299 6.036-5.812 4.094-4.991 3.428-3.581 2.282-1.996 1.35 0 0"/>
<path transform="matrix(1,0,0,-1,330.8199,513.8282)" d="M0 0C-.743-.194-1.616-.211-2.454-.199-3.433-.186-4.384-.029-5.363-.02-8.134 .006-8.143 .586-8.143 .586-8.004 1.158-7.009 1.582-5.99 1.852-5.591 1.957-5.172 2.05-4.727 2.087-4.295 2.123-3.852 2.106-3.417 2.081-2.68 2.039-1.948 1.974-1.226 1.889-.221 1.77 .919 1.528 1.136 1.023 1.311 .613 .743 .194 0 0M-2.35 5.458C-3.093 5.069-3.966 5.036-4.804 5.059-5.783 5.086-6.734 5.4-7.713 5.418-10.484 5.47-10.492 6.629-10.492 6.629-10.354 7.774-9.359 8.622-8.34 9.162-7.941 9.373-7.522 9.557-7.077 9.631-6.645 9.703-6.202 9.669-5.767 9.619-5.03 9.535-4.297 9.407-3.575 9.235-2.571 8.997-1.431 8.513-1.214 7.504-1.038 6.685-1.607 5.846-2.35 5.458M-.148 12.377C-3.294 14.386-6.808 14.792-10.134 13.053-13.68 11.198-15.416 8.048-15.092 4.646-15.01-1.262-12.379-4.852-7.328-4.784-3.719-4.736 2.958-6.967 1.084 1.382 1.041 1.57 1.562 1.849 1.753 2.131 4.505 6.191 3.906 9.788-.148 12.377"/>
<path transform="matrix(1,0,0,-1,267.5983,527.749)" d="M0 0C1.255-1.136 2.873-1.453 4.524-1.439 6.295-1.423 8.15-1.252 9.867-.812 13.027-.001 16.285 2.627 15.856 6.234 15.792 6.774 15.442 7.228 14.856 7.234 14.365 7.239 13.792 6.77 13.856 6.234 14.195 3.384 11.545 1.638 9.098 1.059 7.749 .739 6.34 .623 4.957 .572 3.744 .527 2.365 .553 1.414 1.414 .462 2.276-.957 .866 0 0"/>
<path transform="matrix(1,0,0,-1,267.7762,508.3807)" d="M0 0C.364-.622 .879-1.098 1.422-1.559 1.849-1.923 2.387-2.356 2.566-2.848 2.621-3.001 2.628-3.057 2.621-3.182 2.646-3.114 2.642-3.141 2.61-3.265L2.54-3.488C2.474-3.635 2.285-3.851 2.111-4.008 1.628-4.444 .975-4.722 .417-5.069 .821-5.592 1.225-6.116 1.629-6.639 2.404-5.799 3.258-5.073 4.149-4.36 4.591-4.006 4.978-3.549 5.099-2.981 5.229-2.369 5.078-1.698 4.599-1.273 3.848-.607 2.705-1.251 2.927-2.246 3.128-3.144 2.679-4.084 1.836-4.583 1.156-4.986 .529-5.5 .462-6.345 .396-7.194 .956-7.763 1.604-8.208 2.049-8.514 2.714-8.292 2.972-7.85 3.262-7.354 3.06-6.788 2.614-6.481L2.397-6.303 2.449-6.453C2.373-6.674 2.375-6.705 2.455-6.548 2.419-6.607 2.44-6.59 2.52-6.5L2.736-6.374C3.297-6.039 3.77-5.666 4.162-5.139 4.89-4.159 5.121-2.898 4.856-1.714 4.299-2.038 3.742-2.363 3.185-2.687 3.343-2.827 3.203-2.62 3.149-2.571L3.147-2.558V-2.581L3.14-2.56 3.023-2.698C2.743-2.984 2.396-3.201 2.085-3.456 1.419-4 .797-4.594 .215-5.225-.532-6.034 .427-7.417 1.426-6.796 2.17-6.334 2.982-5.962 3.612-5.34 4.243-4.717 4.692-3.841 4.61-2.937 4.526-2.016 4.009-1.228 3.353-.601 2.8-.073 2.106 .362 1.727 1.009 1.077 2.12-.652 1.114 0 0"/>
<path transform="matrix(1,0,0,-1,271.5262,512.59976)" d="M0 0C.77 .098 1.492 .318 2.233 .539 2.958 .754 3.684 .965 4.408 1.185 5.793 1.605 7.168 2.301 7.61 3.791 7.759 4.292 7.431 4.902 6.912 5.021 6.375 5.143 5.841 4.859 5.682 4.322L5.621 4.137C5.656 4.228 5.647 4.22 5.595 4.114L5.49 3.95C5.546 4.024 5.536 4.015 5.46 3.925L5.209 3.688 5.215 3.695 5.05 3.588C4.589 3.307 4.085 3.175 3.525 3.009 2.896 2.822 2.267 2.635 1.639 2.449 1.353 2.364 1.068 2.277 .781 2.195 .546 2.127 .144 2.018 0 2-.517 1.934-1.026 1.587-1 1-.978 .515-.556-.07 0 0"/>
<path transform="matrix(1,0,0,-1,278.1599,506.6652)" d="M0 0C-.918-.868-1.704-1.873-2.686-2.673-2.824-2.785-2.599-2.61-2.741-2.716L-2.916-2.842C-3.05-2.935-3.187-3.023-3.328-3.104-3.607-3.264-3.82-3.358-4.092-3.444-4.671-3.626-5.311-3.695-5.844-3.618-6.377-3.542-6.918-3.75-7.074-4.317-7.203-4.786-6.913-5.47-6.375-5.547-4.726-5.784-3.084-5.446-1.731-4.443-.55-3.567 .352-2.418 1.414-1.414 1.807-1.043 1.789-.374 1.414 0 1.022 .392 .394 .372 0 0"/>
<path transform="matrix(1,0,0,-1,270.9795,511.9213)" d="M0 0C2.18-.945 4.303-.082 6.344 .804 7.243 1.193 8.118 1.673 8.8 2.392 9.524 3.155 10.008 4.091 10.335 5.085 10.503 5.598 10.139 6.177 9.636 6.315 9.093 6.464 8.575 6.132 8.406 5.617 8.189 4.955 7.868 4.315 7.386 3.806 6.855 3.247 6.169 2.9 5.473 2.591 4.205 2.028 2.413 1.119 1.009 1.727 .514 1.941-.063 1.873-.359 1.368-.606 .946-.498 .216 0 0"/>
<path transform="matrix(1,0,0,-1,269.6722,509.589)" d="M0 0C.131-.849 .794-1.579 1.559-1.926 2.463-2.337 3.443-2.324 4.405-2.169 5.986-1.916 7.492-1.058 8.545 .143 8.901 .549 8.944 1.158 8.545 1.557 8.182 1.92 7.488 1.965 7.13 1.557 6.345 .661 5.444 .11 4.297-.158 3.835-.266 3.224-.344 2.728-.227 2.578-.191 2.475-.161 2.37-.104L2.2 .001 2.17 .033 2.032 .178C2.116 .074 2.019 .216 1.994 .26 1.918 .391 2.021 .146 1.98 .291L1.929 .532C1.846 1.066 1.176 1.361 .698 1.23 .128 1.073-.083 .536 0 0"/>
</g>
</g>
</svg>
